<?xml version="1.0" encoding="UTF-8"?>
<!DOCTYPE svg PUBLIC "-//W3C//DTD SVG 1.1//EN" "http://www.w3.org/Graphics/SVG/1.1/DTD/svg11.dtd">
<svg version="1.1" xmlns="http://www.w3.org/2000/svg" xmlns:xlink="http://www.w3.org/1999/xlink" x="0" y="0" width="512" height="512" viewBox="0, 0, 512, 512">
  <g id="Layer_1">
    <path d="M256,461.64 C142.428,461.64 50.36,369.572 50.36,256 C50.36,142.428 142.428,50.36 256,50.36 C369.572,50.36 461.64,142.428 461.64,256 C461.64,369.572 369.572,461.64 256,461.64 z" fill="#5EA9DD"/>
    <g>
      <path d="M123.14,300.538 L123.14,206.362 L139.844,206.362 L139.844,300.538 z" fill="#FFFFFF"/>
      <path d="M123.14,300.538 L123.14,206.362 L139.844,206.362 L139.844,300.538 z" fill-opacity="0" stroke="#FFFBFB" stroke-width="1"/>
    </g>
    <g>
      <path d="M200.324,302.266 Q191.108,302.266 183.476,298.882 Q175.844,295.498 170.372,289.09 Q164.9,282.682 161.876,273.61 Q158.852,264.538 158.852,253.018 Q158.852,241.642 161.876,232.642 Q164.9,223.642 170.372,217.45 Q175.844,211.258 183.476,207.946 Q191.108,204.634 200.324,204.634 Q209.54,204.634 217.172,207.946 Q224.804,211.258 230.348,217.45 Q235.892,223.642 238.916,232.642 Q241.94,241.642 241.94,253.018 Q241.94,264.538 238.916,273.61 Q235.892,282.682 230.348,289.09 Q224.804,295.498 217.172,298.882 Q209.54,302.266 200.324,302.266 z M200.324,287.722 Q205.94,287.722 210.404,285.274 Q214.868,282.826 218.036,278.29 Q221.204,273.754 222.932,267.346 Q224.66,260.938 224.66,253.018 Q224.66,237.178 218.108,228.178 Q211.556,219.178 200.324,219.178 Q189.092,219.178 182.54,228.178 Q175.988,237.178 175.988,253.018 Q175.988,260.938 177.716,267.346 Q179.444,273.754 182.612,278.29 Q185.78,282.826 190.244,285.274 Q194.708,287.722 200.324,287.722 z" fill="#FFFFFF"/>
      <path d="M200.324,302.266 Q191.108,302.266 183.476,298.882 Q175.844,295.498 170.372,289.09 Q164.9,282.682 161.876,273.61 Q158.852,264.538 158.852,253.018 Q158.852,241.642 161.876,232.642 Q164.9,223.642 170.372,217.45 Q175.844,211.258 183.476,207.946 Q191.108,204.634 200.324,204.634 Q209.54,204.634 217.172,207.946 Q224.804,211.258 230.348,217.45 Q235.892,223.642 238.916,232.642 Q241.94,241.642 241.94,253.018 Q241.94,264.538 238.916,273.61 Q235.892,282.682 230.348,289.09 Q224.804,295.498 217.172,298.882 Q209.54,302.266 200.324,302.266 z M200.324,287.722 Q205.94,287.722 210.404,285.274 Q214.868,282.826 218.036,278.29 Q221.204,273.754 222.932,267.346 Q224.66,260.938 224.66,253.018 Q224.66,237.178 218.108,228.178 Q211.556,219.178 200.324,219.178 Q189.092,219.178 182.54,228.178 Q175.988,237.178 175.988,253.018 Q175.988,260.938 177.716,267.346 Q179.444,273.754 182.612,278.29 Q185.78,282.826 190.244,285.274 Q194.708,287.722 200.324,287.722 z" fill-opacity="0" stroke="#FFFBFB" stroke-width="1"/>
    </g>
    <g>
      <path d="M260.804,300.538 L260.804,206.362 L290.468,206.362 Q298.244,206.362 304.94,207.802 Q311.636,209.242 316.532,212.698 Q321.428,216.154 324.164,221.698 Q326.9,227.242 326.9,235.45 Q326.9,243.226 324.164,248.986 Q321.428,254.746 316.604,258.562 Q311.78,262.378 305.228,264.178 Q298.676,265.978 291.044,265.978 L277.508,265.978 L277.508,300.538 z M277.508,252.586 L289.748,252.586 Q310.484,252.586 310.484,235.45 Q310.484,226.522 305.084,223.138 Q299.684,219.754 289.172,219.754 L277.508,219.754 z" fill="#FFFFFF"/>
      <path d="M260.804,300.538 L260.804,206.362 L290.468,206.362 Q298.244,206.362 304.94,207.802 Q311.636,209.242 316.532,212.698 Q321.428,216.154 324.164,221.698 Q326.9,227.242 326.9,235.45 Q326.9,243.226 324.164,248.986 Q321.428,254.746 316.604,258.562 Q311.78,262.378 305.228,264.178 Q298.676,265.978 291.044,265.978 L277.508,265.978 L277.508,300.538 z M277.508,252.586 L289.748,252.586 Q310.484,252.586 310.484,235.45 Q310.484,226.522 305.084,223.138 Q299.684,219.754 289.172,219.754 L277.508,219.754 z" fill-opacity="0" stroke="#FFFBFB" stroke-width="1"/>
    </g>
    <g>
      <path d="M356.708,250.426 L353.396,261.946 L377.444,261.946 L374.132,250.426 Q371.828,242.938 369.74,235.018 Q367.652,227.098 365.636,219.322 L365.06,219.322 Q363.044,227.242 361.028,235.09 Q359.012,242.938 356.708,250.426 z M325.172,300.538 L355.844,206.362 L375.428,206.362 L406.1,300.538 L388.532,300.538 L381.188,275.05 L349.508,275.05 L342.164,300.538 z" fill="#FFFFFF"/>
      <path d="M356.708,250.426 L353.396,261.946 L377.444,261.946 L374.132,250.426 Q371.828,242.938 369.74,235.018 Q367.652,227.098 365.636,219.322 L365.06,219.322 Q363.044,227.242 361.028,235.09 Q359.012,242.938 356.708,250.426 z M325.172,300.538 L355.844,206.362 L375.428,206.362 L406.1,300.538 L388.532,300.538 L381.188,275.05 L349.508,275.05 L342.164,300.538 z" fill-opacity="0" stroke="#FFFBFB" stroke-width="1"/>
    </g>
    <path d="M-69.189,440.894 L-69.189,440.894" fill-opacity="0" stroke="#FFFBFB" stroke-width="10"/>
    <g>
      <path d="M407.548,338.643 L407.535,339.18 L407.436,340.14 L407.255,341.014 L407.007,341.813 L406.714,342.511 L406.416,343.069 L406.164,343.44 L406.024,343.58 L406.04,343.491 L406.19,343.255 L406.358,343.023 L406.387,342.945 L406.171,343.085 L405.679,343.432 L404.929,343.941 L403.956,344.563 L402.79,345.263 L401.462,346.013 L399.99,346.793 L398.392,347.592 L396.68,348.4 L394.861,349.212 L392.942,350.022 L390.928,350.828 L388.825,351.628 L386.637,352.418 L384.367,353.198 L382.016,353.966 L379.587,354.722 L377.084,355.465 L374.507,356.193 L371.859,356.907 L369.141,357.605 L366.356,358.288 L363.504,358.954 L360.589,359.603 L357.609,360.235 L354.568,360.849 L351.468,361.445 L348.308,362.023 L345.091,362.581 L341.818,363.12 L338.491,363.64 L335.111,364.139 L331.679,364.619 L328.196,365.077 L324.665,365.514 L321.086,365.93 L317.46,366.324 L313.789,366.696 L310.075,367.046 L306.317,367.373 L302.519,367.676 L298.681,367.957 L294.805,368.213 L290.891,368.445 L286.941,368.653 L282.956,368.836 L278.938,368.993 L274.888,369.126 L270.808,369.232 L266.697,369.313 L262.559,369.367 L258.393,369.394 L256.303,369.397 L256.303,369.397 C254.785,369.399 251.252,372.012 248.412,375.232 C245.572,378.452 244.499,381.061 246.017,381.059 L248.119,381.055 L252.302,381.028 L256.458,380.974 L260.586,380.893 L264.685,380.786 L268.754,380.653 L272.791,380.495 L276.795,380.311 L280.765,380.102 L284.7,379.869 L288.598,379.611 L292.459,379.329 L296.28,379.023 L300.06,378.694 L303.799,378.342 L307.495,377.968 L311.147,377.571 L314.754,377.152 L318.314,376.711 L321.827,376.248 L325.29,375.764 L328.704,375.26 L332.065,374.735 L335.375,374.189 L338.63,373.624 L341.831,373.039 L344.976,372.434 L348.063,371.81 L351.093,371.167 L354.064,370.506 L356.973,369.826 L359.822,369.128 L362.608,368.411 L365.332,367.677 L367.992,366.924 L370.587,366.154 L373.117,365.365 L375.583,364.558 L377.983,363.733 L380.318,362.888 L382.588,362.023 L384.794,361.138 L386.94,360.229 L389.027,359.294 L391.06,358.33 L393.045,357.33 L394.99,356.288 L396.911,355.19 L398.824,354.02 L400.755,352.748 L402.734,351.341 L404.793,349.751 L406.947,347.933 L409.162,345.875 L411.33,343.645 L413.292,341.391 L414.929,339.266 L416.215,337.354 L417.195,335.653 L417.928,334.124 L418.466,332.72 L418.844,331.402 L419.083,330.143 L419.196,328.957 L419.209,328.417 C419.209,328.417 419.209,328.417 419.209,328.417 C419.247,326.869 416.666,327.903 413.446,330.727 C410.226,333.55 407.586,337.094 407.548,338.643 L407.548,338.643" fill="#FFFDFD"/>
      <path d="M93.791,338.706 L93.804,339.244 L93.914,340.398 L94.137,341.552 L94.468,342.681 L94.903,343.789 L95.439,344.878 L96.075,345.952 L96.809,347.011 L97.639,348.055 L98.564,349.087 L99.583,350.106 L100.694,351.113 L101.896,352.106 L103.188,353.088 L104.568,354.058 L106.035,355.015 L107.589,355.959 L109.227,356.891 L110.949,357.81 L112.753,358.715 L114.638,359.607 L116.603,360.486 L118.646,361.35 L120.767,362.201 L122.964,363.037 L125.236,363.858 L127.581,364.664 L129.999,365.455 L132.488,366.231 L135.046,366.99 L137.674,367.733 L140.368,368.459 L143.129,369.169 L145.954,369.862 L148.843,370.537 L151.794,371.194 L154.807,371.833 L157.878,372.453 L161.009,373.055 L164.197,373.638 L167.441,374.201 L170.739,374.745 L174.091,375.269 L177.495,375.772 L180.95,376.254 L184.455,376.716 L188.008,377.156 L191.608,377.574 L195.255,377.971 L198.946,378.345 L202.679,378.696 L206.456,379.025 L210.272,379.33 L214.129,379.612 L218.024,379.869 L221.956,380.102 L225.923,380.311 L229.925,380.495 L233.96,380.653 L238.028,380.786 L242.125,380.893 L246.253,380.974 L250.407,381.028 L254.59,381.055 L256.693,381.059 L256.693,381.059 C258.206,381.062 261.737,378.453 264.58,375.233 C267.423,372.013 268.501,369.4 266.988,369.397 L264.898,369.394 L260.732,369.367 L256.592,369.313 L252.481,369.232 L248.399,369.126 L244.348,368.993 L240.327,368.836 L236.341,368.653 L232.388,368.445 L228.472,368.212 L224.592,367.956 L220.75,367.675 L216.948,367.371 L213.186,367.044 L209.466,366.694 L205.79,366.322 L202.159,365.927 L198.573,365.51 L195.034,365.072 L191.544,364.612 L188.104,364.132 L184.714,363.631 L181.377,363.11 L178.093,362.569 L174.865,362.008 L171.693,361.428 L168.577,360.83 L165.521,360.212 L162.524,359.577 L159.589,358.923 L156.716,358.252 L153.908,357.564 L151.165,356.859 L148.487,356.137 L145.878,355.399 L143.337,354.645 L140.868,353.876 L138.469,353.092 L136.144,352.292 L133.893,351.479 L131.717,350.651 L129.618,349.81 L127.597,348.955 L125.656,348.087 L123.795,347.207 L122.016,346.314 L120.321,345.41 L118.71,344.495 L117.185,343.568 L115.748,342.632 L114.399,341.685 L113.14,340.729 L111.972,339.765 L110.897,338.793 L109.915,337.813 L109.029,336.827 L108.239,335.836 L107.546,334.841 L106.951,333.844 L106.455,332.847 L106.06,331.852 L105.763,330.863 L105.566,329.885 L105.465,328.893 L105.452,328.354 C105.415,326.871 102.775,327.986 99.554,330.845 C96.334,333.703 93.754,337.223 93.791,338.706 L93.791,338.706" fill="#FFFDFD"/>
    </g>
  </g>
</svg>
